# AST/ASF file generated using VICON BodyLanguage
# -----------------------------------------------
:version 1.10
:name VICON
:units
  mass 1.0
  length 0.45
  angle deg
:documentation
   .ast/.asf automatically generated from VICON data using
   VICON BodyBuilder and BodyLanguage model FoxedUp or BRILLIANT.MOD
:root
   order TX TY TZ RX RY RZ
   axis XYZ
   position 0 0 0  
   orientation 0 0 0 
:bonedata
  begin
     id 1 
     name lhipjoint
     direction 0.578396 -0.714046 0.394458 
     length 2.21935 
     axis 0 0 0  XYZ
  end
  begin
     id 2 
     name lfemur
     direction 0.34202 -0.939693 0  
     length 6.39105  
     axis 0 0 20  XYZ
    dof rx ry rz
    limits (-160.0 20.0)
           (-70.0 70.0)
           (-60.0 70.0)
  end
  begin
     id 3 
     name ltibia
     direction 0.34202 -0.939693 0   
     length 6.99037   
     axis 0 0 20   XYZ
    dof rx
    limits (-10.0 170.0)
  end
  begin
     id 4 
     name lfoot
     direction 0.0582372 -0.160005 0.985397   
     length 2.06111   
     axis -90 7.62852e-016 20   XYZ
    dof rx rz
    limits (-45.0 90.0)
           (-70.0 20.0)
  end
  begin
     id 5 
     name ltoes
     direction 1.53556e-011 -4.21875e-011 1   
     length 1.04074   
     axis -90 7.62852e-016 20   XYZ
    dof rx
    limits (-90.0 20.0)
  end
  begin
     id 6 
     name rhipjoint
     direction -0.558179 -0.726269 0.40121   
     length 2.182  
     axis 0 0 0  XYZ 
  end
  begin
     id 7 
     name rfemur
     direction -0.34202 -0.939693 0   
     length 6.51172   
     axis 0 0 -20   XYZ
    dof rx ry rz
    limits (-160.0 20.0)
           (-70.0 70.0)
           (-70.0 60.0)
  end
  begin
     id 8 
     name rtibia
     direction -0.34202 -0.939693 0   
     length 7.02607   
     axis 0 0 -20   XYZ
    dof rx
    limits (-10.0 170.0)
 end
 begin
     id 9 
     name rfoot
     direction -0.0788856 -0.216737 0.973038   
     length 1.96734  
     axis -90 -7.62852e-016 -20   XYZ
    dof rx rz
    limits (-45.0 90.0)
           (-20.0 70.0)
  end
  begin
     id 10 
     name rtoes
     direction -1.53567e-011 -4.21783e-011 1   
     length 0.990825   
     axis -90 -7.62852e-016 -20   XYZ
    dof rx
    limits (-90.0 20.0)
  end
  begin
     id 11 
     name lowerback
     direction 0.00668177 0.999323 -0.0361741   
     length 1.7655   
     axis 0 0 0   XYZ
    dof rx ry rz
    limits (-20.0 45.0)
           (-30.0 30.0)
           (-30.0 30.0)
  end
  begin
     id 12 
     name upperback
     direction -0.00222086 0.99851 0.0545167   
     length 1.74912   
     axis 0 0 0   XYZ
    dof rx ry rz
    limits (-20.0 45.0)
           (-30.0 30.0)
           (-30.0 30.0)
  end
  begin
     id 13 
     name thorax
     direction -0.00733971 0.997496 0.0703443   
     length 1.75715   
     axis 0 0 0   XYZ
    dof rx ry rz
    limits (-20.0 45.0)
           (-30.0 30.0)
           (-30.0 30.0)
  end
  begin
     id 14 
     name lowerneck
     direction 0.0279797 0.994795 0.0979765   
     length 1.46939   
     axis 0 0 0   XYZ
    dof rx ry rz
    limits (-20.0 45.0)
           (-30.0 30.0)
           (-30.0 30.0)
  end
  begin
     id 15 
     name upperneck
     direction 0.00339187 0.976776 -0.214238   
     length 1.48018   
     axis 0 0 0   XYZ
    dof rx ry rz
    limits (-20.0 45.0)
           (-30.0 30.0)
           (-30.0 30.0)
  end
  begin
     id 16
     name head
     direction -0.00263506 0.996603 -0.0823096  
     length 1.4976  
     axis 0 0 0   XYZ
    dof rx ry rz
    limits (-20.0 45.0)
           (-30.0 30.0)
           (-30.0 30.0)
  end
  begin
     id 17 
     name lclavicle
     direction 0.894044 0.44508 -0.0508781  
     length 3.03024  
     axis 0 0 0   XYZ
    dof ry rz
    limits (-20.0 10.0)
           (0.0 20.0)
  end
  begin
     id 18 
     name lhumerus
     direction 1 -4.48961e-011 -2.39475e-018   
     length 4.4661   
     axis 180 -30 -90   XYZ
    dof rx ry rz
    limits (-60.0 90.0)
           (-90.0 90.0)
           (-90.0 90.0)
  end
  begin
     id 19
     name lradius
     direction 1 -4.48961e-011 9.29328e-028   
     length 3.41414   
     axis 180 -30 -90   XYZ
    dof rx
    limits (-10.0 170.0)
  end
  begin
     id 20
     name lwrist
     direction 1 -4.48985e-011 1.53461e-026   
     length 1.70707   
     axis -1.09697e-014 90 90   XYZ
    dof ry
    limits (-180.0 0.0)
 end
  begin
     id 21 
     name lhand
     direction 1 -4.48966e-011 3.06923e-026   
     length 0.328298   
     axis -1.95843e-014 90 90   XYZ
    dof rx rz
    limits (-90.0 90.0)
           (-45.0 45.0)
  end
  begin
     id 22 
     name lfingers
     direction 1 -4.48893e-011 6.13845e-026   
     length 0.264682   
     axis -3.91686e-014 90 90   XYZ
    dof rx
    limits (0.0 90.0)
  end
  begin
     id 23
     name lthumb
     direction 0.707107 -6.34876e-011 0.707107   
     length 0.380032   
     axis -90 45 2.85299e-015   XYZ
    dof rx rz
    limits (-45.0 45.0)
           (-45.0 45.0)
  end
  begin
     id 24 
     name rclavicle
     direction -0.936955 0.347862 -0.0332887   
     length 3.26927  
     axis 0 0 0   XYZ 
    dof ry rz
    limits (-10.0 20.0)
           (-20.0 0.0)
  end
  begin
     id 25 
     name rhumerus
     direction -1 -4.4896e-011 1.78637e-018  
     length 4.40431   
     axis 180 30 90   XYZ
    dof rx ry rz
    limits (-90.0 60.0)
           (-90.0 90.0)
           (-90.0 90.0)
  end
  begin
     id 26 
     name rradius
     direction -1 -4.48955e-011 9.34036e-027   
     length 3.04688   
     axis 180 30 90   XYZ
    dof rx
    limits (-10.0 170.0)
  end
  begin
     id 27 
     name rwrist
     direction -1 -4.49011e-011 1.53461e-026   
     length 1.52344   
     axis -1.09697e-014 -90 -90   XYZ
    dof ry
    limits (-180.0 0.0)
  end
  begin
     id 28
     name rhand
     direction -1 -4.48834e-011 3.06923e-026   
     length 0.500489   
     axis -1.95843e-014 -90 -90   XYZ
    dof rx rz
    limits (-90.0 90.0)
           (-45.0 45.0)
  end
  begin
     id 29
     name rfingers
     direction -1 -4.48967e-011 6.13845e-026   
     length 0.403507   
     axis -3.91686e-014 -90 -90   XYZ
    dof rx
    limits (0.0 90.0)
  end
  begin
     id 30
     name rthumb
     direction -0.707107 -6.34826e-011 0.707107   
     length 0.579358   
     axis -90 -45 -2.85299e-015   XYZ
    dof rx rz
    limits (-45.0 45.0)
           (-45.0 45.0)
  end
:hierarchy
  begin
    root lhipjoint rhipjoint lowerback
    lhipjoint lfemur
    lfemur ltibia
    ltibia lfoot
    lfoot ltoes
    rhipjoint rfemur
    rfemur rtibia
    rtibia rfoot
    rfoot rtoes
    lowerback upperback
    upperback thorax
    thorax lowerneck lclavicle rclavicle
    lowerneck upperneck
    upperneck head
    lclavicle lhumerus
    lhumerus lradius
    lradius lwrist
    lwrist lhand lthumb
    lhand lfingers
    rclavicle rhumerus
    rhumerus rradius
    rradius rwrist
    rwrist rhand rthumb
    rhand rfingers
  end

#!OML:ASF H:\IndianDance\Patient Classification 1\Patient 1\Session 1\dancer.ASF
:FULLY-SPECIFIED
:DEGREES
1
root 44.8411 12.7071 14.1774 5.35924 -28.5352 -3.60825
lowerback 5.21527 -1.02764 0.602787
upperback -5.71562 -1.33601 0.181919
thorax -8.96784 -0.694978 0.0285378
lowerneck -9.35841 -14.7769 -9.10743
upperneck 15.7379 -21.5117 12.5293
head 8.81968 -9.84325 2.9643
rclavicle 4.02539e-015 1.98785e-015
rhumerus 14.5901 65.0998 -8.65901
rradius 112.597
rwrist -8.31628
rhand -41.0255 45.8313
rfingers 7.12502
rthumb -13.9562 16.3197
lclavicle 4.02539e-015 1.98785e-015
lhumerus 23.9138 -65.6368 -13.5984
lradius 118.654
lwrist 15.5518
lhand -55.8423 -10.2733
lfingers 7.12502
lthumb -28.1855 17.6276
rfemur -38.5244 -47.0066 19.2791
rtibia 82.0024
rfoot -30.7627 -18.4505
rtoes -9.94717
lfemur -38.9699 36.5788 -18.7069
ltibia 82.5389
lfoot -37.9678 3.19036
ltoes 7.1915
2
root 44.8369 12.7064 14.1779 5.30669 -28.5432 -3.6116
lowerback 5.21686 -1.0674 0.60181
upperback -5.73601 -1.38645 0.224195
thorax -8.99031 -0.718049 0.0806775
lowerneck -9.37627 -14.6984 -9.08008
upperneck 15.9149 -21.3785 12.2991
head 8.83542 -9.79111 2.90644
rclavicle -1.61016e-014 1.98785e-015
rhumerus 14.7711 65.0755 -8.56728
rradius 112.649
rwrist -8.43609
rhand -40.745 45.6033
rfingers 7.12502
rthumb -13.6859 16.0733
lclavicle -1.61016e-014 1.98785e-015
lhumerus 23.498 -65.7419 -13.2137
lradius 118.608
lwrist 15.555
lhand -55.7746 -10.3569
lfingers 7.12502
lthumb -28.1208 17.5546
rfemur -38.4018 -47.0343 19.1818
rtibia 82.0233
rfoot -31.3617 -17.7327
rtoes -7.53187
lfemur -38.8739 36.5931 -18.6295
ltibia 82.5388
lfoot -37.9983 3.28319
ltoes 6.78296
3
root 44.833 12.7068 14.1787 5.26201 -28.5438 -3.59438
lowerback 5.18088 -1.01148 0.585717
upperback -5.74015 -1.31518 0.196618
thorax -8.97337 -0.683325 0.0506113
lowerneck -9.41939 -14.7147 -8.91993
upperneck 16.0833 -21.4015 12.0832
head 8.85779 -9.80294 2.8081
rclavicle 4.34344e-014 -1.98785e-015
rhumerus 14.1324 64.9901 -9.14698
rradius 112.633
rwrist -8.41462
rhand -40.7736 45.8101
rfingers 7.12502
rthumb -13.7134 16.282
lclavicle 4.34344e-014 -1.98785e-015
lhumerus 23.789 -65.7235 -13.4132
lradius 118.56
lwrist 15.4999
lhand -55.5139 -10.3041
lfingers 7.12502
lthumb -27.8716 17.6481
rfemur -38.3111 -47.0677 19.0877
rtibia 82.0378
rfoot -31.9029 -17.1058
rtoes -5.30176
lfemur -38.7947 36.5995 -18.5889
ltibia 82.5109
lfoot -37.958 3.30921
ltoes 6.8549
4
root 44.8278 12.7066 14.179 5.20964 -28.5664 -3.58829
lowerback 5.14442 -1.00478 0.640481
upperback -5.72809 -1.30526 0.146193
thorax -8.94114 -0.683992 -0.0355719
lowerneck -9.51437 -14.6627 -8.76492
upperneck 16.2487 -21.3373 11.9272
head 8.88698 -9.76715 2.73953
rclavicle -4.17448e-014 -1.51076e-014
rhumerus 13.8282 64.9087 -9.54381
rradius 112.704
rwrist -8.41526
rhand -40.6982 45.6961
rfingers 7.12502
rthumb -13.6408 16.163
lclavicle -4.17448e-014 -1.51076e-014
lhumerus 23.8079 -65.684 -13.5011
lradius 118.584
lwrist 15.5536
lhand -55.4595 -9.64455
lfingers 7.12502
lthumb -27.8196 18.3161
rfemur -38.2022 -47.0873 19.0008
rtibia 82.0554
rfoot -32.4109 -16.469
rtoes -2.99531
lfemur -38.6841 36.6482 -18.5094
ltibia 82.4747
lfoot -37.9557 3.26663
ltoes 6.50117
5
root 44.8236 12.7055 14.1789 5.15994 -28.6013 -3.5643
lowerback 5.12453 -0.97767 0.497047
upperback -5.7175 -1.27778 0.202565
thorax -8.91271 -0.65905 0.100285
lowerneck -9.51317 -14.6523 -8.81612
upperneck 16.2982 -21.3304 11.9596
head 8.91265 -9.7619 2.75637
rclavicle 3.57812e-014 -6.75868e-015
rhumerus 13.5707 64.8459 -9.65795
rradius 112.784
rwrist -8.34812
rhand -40.706 45.7023
rfingers 7.12502
rthumb -13.6482 16.1698
lclavicle 3.57812e-014 -6.75868e-015
lhumerus 23.5925 -65.6464 -13.256
lradius 118.594
lwrist 15.5566
lhand -55.4047 -10.0229
lfingers 7.12502
lthumb -27.7672 17.9462
rfemur -38.1406 -47.1214 18.9346
rtibia 82.0696
rfoot -32.8168 -16.0399
rtoes -1.30748
lfemur -38.6095 36.7149 -18.5308
ltibia 82.3709
lfoot -37.8301 4.23328
ltoes 4.08882
6
root 44.8192 12.7056 14.1791 5.11559 -28.6275 -3.5525
lowerback 5.0944 -0.962995 0.450565
upperback -5.70872 -1.26195 0.209546
thorax -8.88395 -0.648067 0.130957
lowerneck -9.54555 -14.6266 -8.77254
upperneck 16.3952 -21.3026 11.9053
head 8.93679 -9.74594 2.73394
rclavicle -4.35835e-014 -1.55052e-014
rhumerus 13.2976 64.7826 -9.89227
rradius 112.846
rwrist -8.31475
rhand -40.6843 45.636
rfingers 7.12502
rthumb -13.6274 16.1021
lclavicle -4.35835e-014 -1.55052e-014
lhumerus 23.4583 -65.6186 -13.1491
lradius 118.602
lwrist 15.5587
lhand -55.3166 -10.0188
lfingers 7.12502
lthumb -27.6829 17.9639
rfemur -38.0572 -47.1454 18.8691
rtibia 82.0726
rfoot -33.1315 -15.7014
rtoes -0.067155
lfemur -38.5155 36.762 -18.4971
ltibia 82.2909
lfoot -37.7734 4.57963
ltoes 3.13655
7
root 44.8148 12.7063 14.1791 5.07512 -28.6576 -3.54001
lowerback 5.06084 -0.948941 0.396683
upperback -5.69675 -1.24762 0.216462
thorax -8.84955 -0.63735 0.165796
lowerneck -9.57736 -14.6038 -8.73841
upperneck 16.4754 -21.2826 11.8851
head 8.96135 -9.73197 2.72244
rclavicle -2.5196e-014 6.75868e-015
rhumerus 13.0239 64.7235 -10.112
rradius 112.911
rwrist -8.27489
rhand -40.6803 45.5567
rfingers 7.12502
rthumb -13.6235 16.0225
lclavicle -2.5196e-014 6.75868e-015
lhumerus 23.2909 -65.5817 -13.0291
lradius 118.619
lwrist 15.5517
lhand -55.237 -10.032
lfingers 7.12502
lthumb -27.6068 17.9629
rfemur -37.9787 -47.1646 18.8149
rtibia 82.0638
rfoot -33.3525 -15.5021
rtoes 0.655991
lfemur -38.4186 36.8098 -18.4645
ltibia 82.1996
lfoot -37.7253 4.88055
ltoes 2.31932
8
root 44.8103 12.7076 14.179 5.04064 -28.6899 -3.52976
lowerback 5.02475 -0.939385 0.339002
upperback -5.68309 -1.23945 0.226003
thorax -8.81172 -0.629328 0.206254
lowerneck -9.60437 -14.5821 -8.71725
upperneck 16.5376 -21.2668 11.8942
head 8.98449 -9.71904 2.72181
rclavicle -2.40032e-014 7.95139e-016
rhumerus 12.7822 64.6704 -10.2918
rradius 112.976
rwrist -8.23893
rhand -40.6581 45.496
rfingers 7.12502
rthumb -13.6021 15.9603
lclavicle -2.40032e-014 7.95139e-016
lhumerus 23.0702 -65.5434 -12.8794
lradius 118.644
lwrist 15.5341
lhand -55.1552 -10.0477
lfingers 7.12502
lthumb -27.5286 17.9596
rfemur -37.9036 -47.1775 18.7746
rtibia 82.0407
rfoot -33.5073 -15.3766
rtoes 1.08685
lfemur -38.3219 36.8569 -18.4286
ltibia 82.1128
lfoot -37.7037 5.11522
ltoes 1.66083
9
root 44.806 12.7098 14.1786 5.01193 -28.7233 -3.51981
lowerback 4.98703 -0.930815 0.274506
upperback -5.66915 -1.23305 0.237363
thorax -8.77249 -0.6217 0.252643
lowerneck -9.62709 -14.5657 -8.7001
upperneck 16.5858 -21.2599 11.9199
head 9.00567 -9.7098 2.72604
rclavicle 4.24405e-014 9.93923e-015
rhumerus 12.5535 64.6237 -10.4444
rradius 113.036
rwrist -8.21642
rhand -40.6209 45.4579
rfingers 7.12502
rthumb -13.5663 15.9199
lclavicle 4.24405e-014 9.93923e-015
lhumerus 22.8265 -65.5065 -12.7192
lradius 118.671
lwrist 15.5031
lhand -55.0752 -10.0779
lfingers 7.12502
lthumb -27.4521 17.9416
rfemur -37.8327 -47.1836 18.7458
rtibia 82.004
rfoot -33.6086 -15.3092
rtoes 1.28469
lfemur -38.2269 36.8989 -18.3921
ltibia 82.0258
lfoot -37.703 5.27863
ltoes 1.1905
10
root 44.8017 12.7125 14.1781 4.98949 -28.7563 -3.51155
lowerback 4.94754 -0.924555 0.211927
upperback -5.65527 -1.22967 0.247044
thorax -8.73239 -0.615774 0.29653
lowerneck -9.65217 -14.5523 -8.67401
upperneck 16.6272 -21.2579 11.9476
head 9.02471 -9.70234 2.72892
rclavicle -6.50026e-014 -5.96354e-015
rhumerus 12.3438 64.5856 -10.5727
rradius 113.088
rwrist -8.21066
rhand -40.5621 45.4464
rfingers 7.12502
rthumb -13.5096 15.9046
lclavicle -6.50026e-014 -5.96354e-015
lhumerus 22.572 -65.4737 -12.5627
lradius 118.699
lwrist 15.4629
lhand -54.9972 -10.0755
lfingers 7.12502
lthumb -27.3775 17.9558
rfemur -37.7658 -47.1829 18.7282
rtibia 81.9562
rfoot -33.6826 -15.2528
rtoes 1.42231
lfemur -38.137 36.9388 -18.3554
ltibia 81.9396
lfoot -37.7115 5.41194
ltoes 0.774121
11
root 44.7976 12.7159 14.1774 4.97247 -28.7864 -3.50395
lowerback 4.90855 -0.918446 0.145721
upperback -5.64292 -1.22668 0.257836
thorax -8.69419 -0.609803 0.343703
lowerneck -9.67442 -14.5436 -8.6383
upperneck 16.659 -21.2619 11.9711
head 9.03906 -9.69798 2.72865
rclavicle 6.52511e-014 1.94809e-014
rhumerus 12.1492 64.5565 -10.6742
rradius 113.126
rwrist -8.22355
rhand -40.4826 45.4296
rfingers 7.12502
rthumb -13.4329 15.8828
lclavicle 6.52511e-014 1.94809e-014
lhumerus 22.3243 -65.4455 -12.4138
lradius 118.729
lwrist 15.4052
lhand -54.9435 -9.99757
lfingers 7.12502
lthumb -27.3261 18.0419
rfemur -37.7026 -47.1775 18.7193
rtibia 81.8991
rfoot -33.7349 -15.1895
rtoes 1.55798
lfemur -38.0522 36.9685 -18.314
ltibia 81.861
lfoot -37.7457 5.39512
ltoes 0.710981
12
root 44.7936 12.7195 14.1764 4.95899 -28.8113 -3.49534
lowerback 4.87038 -0.91474 0.074158
upperback -5.63204 -1.22715 0.271368
thorax -8.65793 -0.605113 0.397226
lowerneck -9.69802 -14.5364 -8.59274
upperneck 16.6863 -21.2657 11.9821
head 9.04943 -9.69415 2.72322
rclavicle 7.35503e-015 8.74653e-015
rhumerus 11.9906 64.5396 -10.7325
rradius 113.154
rwrist -8.25357
rhand -40.3926 45.4175
rfingers 7.12502
rthumb -13.3462 15.8649
lclavicle 7.35503e-015 8.74653e-015
lhumerus 22.0777 -65.4277 -12.2654
lradius 118.757
lwrist 15.3426
lhand -54.9083 -9.87211
lfingers 7.12502
lthumb -27.2925 18.1726
rfemur -37.6436 -47.1701 18.714
rtibia 81.838
rfoot -33.8058 -15.0751
rtoes 1.8824
lfemur -37.979 36.9948 -18.2809
ltibia 81.7837
lfoot -37.7627 5.44456
ltoes 0.453198
13
root 44.7897 12.7233 14.1752 4.94982 -28.8296 -3.48579
lowerback 4.83241 -0.913018 0.000560524
upperback -5.62332 -1.23031 0.286387
thorax -8.62407 -0.601591 0.453814
lowerneck -9.71776 -14.5302 -8.53579
upperneck 16.7066 -21.2682 11.9784
head 9.05341 -9.6908 2.71239
rclavicle 5.26282e-014 1.47101e-014
rhumerus 11.8664 64.5357 -10.7513
rradius 113.167
rwrist -8.29251
rhand -40.2988 45.3903
rfingers 7.12502
rthumb -13.2558 15.8318
lclavicle 5.26282e-014 1.47101e-014
lhumerus 21.8481 -65.4221 -12.1296
lradius 118.78
lwrist 15.282
lhand -54.902 -9.70277
lfingers 7.12502
lthumb -27.2864 18.3429
rfemur -37.593 -47.1639 18.7132
rtibia 81.7762
rfoot -33.8816 -14.9362
rtoes 2.28908
lfemur -37.9201 37.0135 -18.255
ltibia 81.7116
lfoot -37.7671 5.48455
ltoes 0.218426
14
root 44.7861 12.7271 14.1737 4.94439 -28.8403 -3.47728
lowerback 4.79515 -0.914377 -0.0723394
upperback -5.61604 -1.23734 0.303478
thorax -8.59217 -0.599962 0.51269
lowerneck -9.73275 -14.5245 -8.47547
upperneck 16.7209 -21.2683 11.9625
head 9.0523 -9.68762 2.6982
rclavicle 3.39425e-014 3.97569e-016
rhumerus 11.7823 64.5457 -10.7263
rradius 113.165
rwrist -8.33333
rhand -40.2132 45.3227
rfingers 7.12502
rthumb -13.1733 15.7589
lclavicle 3.39425e-014 3.97569e-016
lhumerus 21.6356 -65.429 -12.0053
lradius 118.796
lwrist 15.2288
lhand -54.9112 -9.51214
lfingers 7.12502
lthumb -27.2952 18.5322
rfemur -37.5489 -47.1608 18.7171
rtibia 81.715
rfoot -33.9609 -14.7687
rtoes 2.79142
lfemur -37.8745 37.0246 -18.234
ltibia 81.6448
lfoot -37.7605 5.5399
ltoes -0.0583441
15
root 44.7828 12.7309 14.1721 4.94267 -28.842 -3.46892
lowerback 4.75599 -0.920526 -0.143975
upperback -5.60941 -1.25046 0.323107
thorax -8.55977 -0.60134 0.574222
lowerneck -9.74082 -14.5171 -8.41521
upperneck 16.7279 -21.262 11.9349
head 9.04528 -9.68316 2.68207
rclavicle -2.20651e-014 -7.55382e-015
rhumerus 11.749 64.5686 -10.6532
rradius 113.152
rwrist -8.36917
rhand -40.1355 45.2244
rfingers 7.12502
rthumb -13.0984 15.6558
lclavicle -2.20651e-014 -7.55382e-015
lhumerus 21.4293 -65.4503 -11.8861
lradius 118.802
lwrist 15.1885
lhand -54.9416 -9.33075
lfingers 7.12502
lthumb -27.3243 18.709
rfemur -37.5141 -47.1644 18.726
rtibia 81.6562
rfoot -34.0231 -14.6405
rtoes 3.16149
lfemur -37.8444 37.0279 -18.2219
ltibia 81.5834
lfoot -37.7388 5.53903
ltoes -0.135277
